<?xml version="1.0" encoding="UTF-8"?>
<svg id="Layer_1" data-name="Layer 1" xmlns="http://www.w3.org/2000/svg" viewBox="0 0 769.11 283.46">
  <defs>
    <style>
      .cls-1 {
        fill: #f15a29;
      }

      .cls-2 {
        fill: #fff;
      }
    </style>
  </defs>
  <circle class="cls-1" cx="140.17" cy="140.64" r="135.62"/>
  <g>
    <path class="cls-2" d="M56.58,200.01v-27.34c-7.45-2.08-12.82-7.57-12.82-16.48,0-2.08.24-4.15.61-6.22.37-1.95.73-3.78.73-5.25-2.69,2.68-1.1,4.15-5.98,5.61-.61.12-1.22.24-1.83.24-4.52,0-8.54-3.66-8.54-8.42,0-1.59.37-2.69.98-4.39,1.95-4.15,11.96-11.96,18.67-11.96,7.93,0,14.77,8.54,14.77,15.38,0,4.39-2.93,7.57-2.93,11.47,0,1.71.24,3.91,1.95,3.91,4.88,0,10.98-6.35,12.33-9.76-1.46-.85-2.81-1.95-4.03-3.29v3.78c0,.98-.98,2.08-2.07,2.08s-2.07-1.1-2.07-2.08v-15.26c0-7.45,3.42-12.94,11.96-12.94,10.01,0,16.6,8.42,16.6,17.58,0,1.34-.12,2.68-.37,4.15,1.1.49,2.32.73,3.78.73,3.91,0,7.93-1.95,10.74-4.88,1.95-2.32,4.52-3.17,6.59-3.17,6.22,0,8.54,5.49,8.54,8.54,0,7.2-11.6,14.89-22.21,14.89h-4.03c-3.54,0-6.59-.12-8.3-1.1-4.88,10.25-13.91,17.58-26.85,17.58h-1.1c-.37,0-.73-.12-.98-.12v26.73c0,1.1-.98,2.2-2.07,2.2-.98,0-2.08-1.1-2.08-2.2Z"/>
    <path class="cls-2" d="M163.87,134.1c4.76,0,8.54,3.78,8.54,8.54,0,2.44-1.1,4.64-2.69,6.22-4.64,4.27-9.52,8.79-14.4,13.43,2.07,3.91,2.93,8.18,2.93,12.57,0,19.16-16.48,43.94-31.12,43.94-12.45,0-19.41-7.57-19.41-18.43s9.28-23.31,20.87-35.64c-13.3-4.64-21.12-12.82-21.12-23.19,0-15.99,12.57-27.95,26.73-33.69-2.08-4.03-2.93-8.54-2.93-12.33,0-4.64,2.56-9.52,6.23-13.91-2.93-.61-5.86-1.34-8.54-2.32-.98,1.46-1.83,2.69-2.44,3.42-1.59,2.08-4.03,3.42-6.84,3.42-4.76,0-8.54-3.78-8.54-8.54,0-1.95.61-3.66,1.71-5.13.85-1.1,2.44-3.42,3.91-5-.12-.37-.12-.85-.12-1.22,0-5.49,4.27-10.25,9.64-10.25,4.64,0,8.67,3.42,9.4,8.3,4.03.85,11.84,1.59,16.97,1.59,2.07,0,4.15-.12,5.74-.12,6.22,0,9.52,4.39,9.52,8.91,0,3.42-1.83,6.83-5.98,8.42-4.27,2.2-13.55,9.4-13.55,12.45,0,4.03.61,7.08,4.88,7.08,6.47,0,9.4,4.15,9.4,8.54,0,4.88-3.66,10.01-10.01,10.01-13.55,0-28.07,8.3-28.07,20.38,0,3.42,3.3,5.74,13.79,8.3,1.46.37,2.69.73,3.91,1.22l15.75-14.65c1.59-1.46,3.66-2.32,5.86-2.32ZM127.13,201.72c3.91,0,13.3-13.06,14.04-25.51-9.4,9.76-16.36,18.67-16.36,24.17q0,1.34,2.32,1.34Z"/>
    <path class="cls-2" d="M166.19,202.7c1.22-68.35,11.96-99.23,37.47-99.23,16.23,0,26.85,11.72,26.85,29.42,0,3.66-.37,6.96-1.1,10.13,4.64-2.2,8.42-5.25,11.84-9.4,1.22-1.1,2.56-1.46,3.91-1.46,4.39,0,8.79,5.25,8.79,10.25,0,1.71-.61,3.54-1.83,5-8.18,9.03-19.41,14.4-35.03,16.11v14.4c0,1.1-.98,2.08-2.08,2.08s-2.07-.98-2.07-2.08v-14.04c-2.44.12-5.13.24-7.81.24v32.71c0,1.1-.98,2.08-2.07,2.08-.98,0-2.08-.98-2.08-2.08v-32.96c-5.98-.61-11.35-2.68-15.99-6.1-1.59,12.08-2.56,27.1-2.93,45.16,0,5.13-4.03,7.81-8.05,7.81s-7.81-2.68-7.81-8.06ZM203.9,148.26c7.08,0,10.74-5.25,10.74-15.38,0-9.15-3.78-13.55-10.99-13.55-6.23,0-11.23,6.22-14.89,19.28,4.03,6.47,9.28,9.64,15.14,9.64Z"/>
  </g>
  <g>
    <path class="cls-1" d="M323.37,133.06c-.74-.71-1.11-1.64-1.11-2.79v-24.87h14.28c2.6,0,4.68.62,6.26,1.85,1.57,1.23,2.36,2.89,2.36,4.97v2.05c0,.9-.23,1.76-.68,2.58-.45.82-1.09,1.49-1.91,2.01v.04c1.31.47,2.37,1.22,3.18,2.26.81,1.04,1.21,2.2,1.21,3.49v2.13c0,2.24-.81,4.03-2.44,5.36s-3.82,1.99-6.59,1.99h-11.7c-1.18,0-2.13-.36-2.87-1.07ZM336.55,117.3c.88,0,1.59-.28,2.13-.84.55-.56.82-1.31.82-2.24v-1.4c0-.77-.29-1.38-.86-1.83-.58-.45-1.34-.68-2.3-.68h-8.41v6.98h8.62ZM337.53,129.2c1.2,0,2.13-.24,2.79-.72.66-.48.98-1.16.98-2.03v-1.81c0-.79-.29-1.44-.86-1.93-.58-.49-1.34-.74-2.3-.74h-10.22v7.22h9.6Z"/>
    <path class="cls-1" d="M365.35,105.4h15.27c2.49,0,4.49.67,6.01,2.01,1.52,1.34,2.28,3.11,2.28,5.29v2.87c0,1.42-.4,2.66-1.21,3.71-.81,1.05-1.98,1.85-3.51,2.4v.08c.88.57,1.54,1.23,1.99,1.97.45.74.9,1.76,1.33,3.08l2.3,7.3h-5.87l-2.17-6.81c-.36-1.18-.85-2.05-1.48-2.63-.63-.58-1.41-.86-2.34-.86h-6.94v10.3h-5.66v-28.73ZM379.55,118.94c1.15,0,2.05-.31,2.71-.92.66-.62.99-1.42.99-2.4v-2.67c0-.79-.25-1.43-.74-1.91-.49-.48-1.15-.72-1.97-.72h-9.52v8.62h8.54Z"/>
    <path class="cls-1" d="M424.78,127.44h-10.75l-2.54,6.69h-5.91l11.24-28.73h2.54c1.78,0,2.98.82,3.61,2.46l10.22,26.26h-5.91l-2.5-6.69ZM415.54,122.68h7.71l-3.82-10.34h-.04l-3.86,10.34Z"/>
    <path class="cls-1" d="M450.67,105.4h5.05l13.79,19.53v-19.53h5.54v28.73h-5.05l-13.79-19.53v19.53h-5.54v-28.73Z"/>
    <path class="cls-1" d="M496.02,133.06c-.74-.71-1.11-1.64-1.11-2.79v-24.87h13.71c2.19,0,4.11.41,5.77,1.23,1.65.82,2.94,1.98,3.86,3.49.92,1.5,1.38,3.24,1.38,5.21v8.04c0,3.53-.92,6.2-2.75,8.02-1.83,1.82-4.53,2.73-8.08,2.73h-9.89c-1.18,0-2.13-.36-2.87-1.07ZM508.62,129.12c1.75,0,3.08-.51,3.98-1.52.9-1.01,1.35-2.5,1.35-4.47v-7.55c0-1.56-.51-2.81-1.52-3.75-1.01-.94-2.34-1.42-3.98-1.42h-7.88v18.71h8.04Z"/>
    <path class="cls-1" d="M322.26,153.39h15.14c1.67,0,3.15.32,4.43.96,1.29.64,2.28,1.56,3,2.75.71,1.19,1.07,2.55,1.07,4.08v3.82c0,1.59-.37,2.99-1.11,4.21-.74,1.22-1.77,2.16-3.1,2.83-1.33.67-2.87,1.01-4.62,1.01h-9.15v9.07h-5.66v-28.73ZM337,168.12c.96,0,1.74-.31,2.34-.92.6-.62.9-1.43.9-2.44v-3.32c0-.96-.27-1.72-.8-2.28-.53-.56-1.24-.84-2.11-.84h-9.4v9.81h9.07Z"/>
    <path class="cls-1" d="M363.79,153.39h15.27c2.49,0,4.49.67,6.01,2.01,1.52,1.34,2.28,3.11,2.28,5.29v2.87c0,1.42-.4,2.66-1.21,3.71-.81,1.05-1.98,1.85-3.51,2.4v.08c.88.57,1.54,1.23,1.99,1.97.45.74.9,1.76,1.33,3.08l2.3,7.3h-5.87l-2.17-6.81c-.36-1.18-.85-2.05-1.48-2.63-.63-.58-1.41-.86-2.34-.86h-6.94v10.3h-5.66v-28.73ZM378,166.93c1.15,0,2.05-.31,2.71-.92.66-.62.99-1.42.99-2.4v-2.67c0-.79-.25-1.43-.74-1.91-.49-.48-1.15-.72-1.97-.72h-9.52v8.62h8.54Z"/>
    <path class="cls-1" d="M410.64,181.06c-1.66-.92-2.94-2.2-3.86-3.86-.92-1.66-1.38-3.58-1.38-5.77v-7.39c0-2.19.46-4.11,1.38-5.77.92-1.65,2.2-2.94,3.86-3.86,1.66-.92,3.56-1.38,5.72-1.38h4.35c2.16,0,4.07.46,5.72,1.38,1.66.92,2.94,2.2,3.86,3.86.92,1.66,1.38,3.58,1.38,5.77v7.39c0,2.19-.46,4.11-1.38,5.77-.92,1.66-2.2,2.94-3.86,3.86-1.66.92-3.56,1.38-5.72,1.38h-4.35c-2.16,0-4.07-.46-5.72-1.38ZM420.72,177.43c1.59,0,2.87-.57,3.84-1.72.97-1.15,1.46-2.65,1.46-4.51v-6.89c0-1.86-.49-3.37-1.46-4.51-.97-1.15-2.25-1.72-3.84-1.72h-4.35c-1.59,0-2.87.58-3.84,1.72-.97,1.15-1.46,2.65-1.46,4.51v6.89c0,1.86.49,3.37,1.46,4.51.97,1.15,2.25,1.72,3.84,1.72h4.35Z"/>
    <path class="cls-1" d="M457.41,179.49l-9.89-26.1h5.91l7.55,21.54h.08l7.59-21.54h5.87l-11.04,28.73h-2.67c-1.59,0-2.72-.88-3.41-2.63Z"/>
    <path class="cls-1" d="M493.11,181.04c-.74-.71-1.11-1.64-1.11-2.79v-24.87h21.92v4.92h-16.25v6.65h15.02v4.92h-15.02v7.3h16.25v4.92h-17.93c-1.18,0-2.13-.36-2.87-1.07Z"/>
    <path class="cls-1" d="M532.54,153.39h5.05l13.79,19.53v-19.53h5.54v28.73h-5.05l-13.79-19.53v19.53h-5.54v-28.73Z"/>
    <path class="cls-1" d="M593.61,175.42h-10.75l-2.54,6.69h-5.91l11.24-28.73h2.54c1.78,0,2.98.82,3.61,2.46l10.22,26.26h-5.91l-2.5-6.69ZM584.38,170.66h7.71l-3.82-10.34h-.04l-3.86,10.34Z"/>
    <path class="cls-1" d="M619.5,153.39h5.05l13.79,19.53v-19.53h5.54v28.73h-5.05l-13.79-19.53v19.53h-5.54v-28.73Z"/>
    <path class="cls-1" d="M667.95,181.09c-1.6-.9-2.84-2.18-3.71-3.84-.88-1.65-1.31-3.56-1.31-5.72v-7.55c0-2.16.44-4.07,1.33-5.73.89-1.65,2.15-2.93,3.78-3.84,1.63-.9,3.51-1.35,5.64-1.35h4.35c2.05,0,3.86.44,5.42,1.31,1.56.88,2.77,2.1,3.63,3.67.86,1.57,1.29,3.4,1.29,5.48h-5.58c0-1.64-.44-2.96-1.31-3.96-.88-1-2.03-1.5-3.45-1.5h-4.35c-1.53,0-2.76.57-3.69,1.7-.93,1.14-1.4,2.62-1.4,4.45v7.06c0,1.83.45,3.32,1.35,4.45.9,1.14,2.09,1.7,3.57,1.7h4.43c1.45,0,2.63-.56,3.55-1.68.92-1.12,1.37-2.6,1.37-4.43h5.58c0,2.22-.44,4.17-1.31,5.85-.88,1.68-2.11,2.98-3.69,3.9-1.59.92-3.42,1.38-5.5,1.38h-4.43c-2.11,0-3.96-.45-5.56-1.35Z"/>
    <path class="cls-1" d="M707.86,181.04c-.74-.71-1.11-1.64-1.11-2.79v-24.87h21.92v4.92h-16.25v6.65h15.02v4.92h-15.02v7.3h16.25v4.92h-17.93c-1.18,0-2.13-.36-2.87-1.07Z"/>
  </g>
</svg>